<svg width="170" height="220" viewBox="0 0 170 220" fill="none" xmlns="http://www.w3.org/2000/svg">
<rect width="170" height="220" rx="12" fill="#4F4B58"/>
<rect x="16" y="16" width="30" height="17" rx="4" fill="#27252C"/>
<rect x="50" y="16" width="30" height="17" rx="4" fill="#3B3842"/>
<g clip-path="url(#clip0_730_6730)">
<path fill-rule="evenodd" clip-rule="evenodd" d="M82 86.4994C78.5522 86.4994 75.2456 87.869 72.8076 90.307C70.3696 92.745 69 96.0516 69 99.4994C69 102.947 70.3696 106.254 72.8076 108.692C75.2456 111.13 78.5522 112.499 82 112.499C85.4478 112.499 88.7544 111.13 91.1924 108.692C93.6304 106.254 95 102.947 95 99.4994C95 96.0516 93.6304 92.745 91.1924 90.307C88.7544 87.869 85.4478 86.4994 82 86.4994ZM65 99.4994C65.0002 96.7886 65.6487 94.1171 66.8914 91.7079C68.134 89.2987 69.9348 87.2216 72.1435 85.6499C74.3522 84.0782 76.9047 83.0574 79.5881 82.6728C82.2715 82.2882 85.0079 82.5509 87.5692 83.439C90.1304 84.327 92.4421 85.8147 94.3115 87.7779C96.1808 89.7411 97.5536 92.1228 98.3152 94.7244C99.0769 97.3261 99.2053 100.072 98.6898 102.733C98.1744 105.395 97.0299 107.894 95.352 110.023L102.656 117.327C103.02 117.705 103.222 118.21 103.217 118.734C103.213 119.259 103.002 119.76 102.632 120.131C102.261 120.502 101.759 120.712 101.235 120.717C100.71 120.721 100.205 120.52 99.828 120.155L92.524 112.851C90.0172 114.827 87.0048 116.058 83.8315 116.402C80.6581 116.745 77.452 116.189 74.5802 114.796C71.7083 113.403 69.2867 111.229 67.5925 108.524C65.8982 105.819 64.9998 102.691 65 99.4994ZM80 92.4994C80 91.969 80.2107 91.4603 80.5858 91.0852C80.9609 90.7101 81.4696 90.4994 82 90.4994C84.387 90.4994 86.6761 91.4476 88.364 93.1355C90.0518 94.8233 91 97.1125 91 99.4994C91 100.03 90.7893 100.539 90.4142 100.914C90.0391 101.289 89.5304 101.499 89 101.499C88.4696 101.499 87.9609 101.289 87.5858 100.914C87.2107 100.539 87 100.03 87 99.4994C87 98.1733 86.4732 96.9016 85.5355 95.9639C84.5979 95.0262 83.3261 94.4994 82 94.4994C81.4696 94.4994 80.9609 94.2887 80.5858 93.9136C80.2107 93.5386 80 93.0298 80 92.4994Z" fill="#27252C"/>
</g>
<rect x="16" y="171.999" width="138" height="8" rx="4" fill="#27252C"/>
<rect x="16" y="183.999" width="73.9199" height="8" rx="4" fill="#3B3842"/>
<rect x="16" y="196" width="116" height="8" rx="4" fill="#3B3842"/>
<defs>
<clipPath id="clip0_730_6730">
<rect width="48" height="48" fill="white" transform="translate(61 78.4994)"/>
</clipPath>
</defs>
</svg>
