<svg width="170" height="220" viewBox="0 0 170 220" fill="none" xmlns="http://www.w3.org/2000/svg">
<rect width="170" height="220" rx="12" fill="#4F4B58"/>
<rect x="16" y="16" width="30" height="17" rx="4" fill="#27252C"/>
<rect x="50" y="16" width="30" height="17" rx="4" fill="#3B3842"/>
<g clip-path="url(#clip0_1271_5079)">
<path d="M85.0001 79.1661C97.8871 79.1661 108.333 89.6124 108.333 102.499C108.333 115.386 97.8871 125.833 85.0001 125.833C72.1131 125.833 61.6667 115.386 61.6667 102.499C61.6667 89.6124 72.1131 79.1661 85.0001 79.1661ZM80.0511 94.2487C79.6322 93.8258 79.0674 93.579 78.4725 93.5588C77.8775 93.5386 77.2974 93.7466 76.8507 94.1402C76.4041 94.5337 76.1248 95.0831 76.0699 95.6759C76.0151 96.2686 76.1889 96.8599 76.5558 97.3287L76.7518 97.5504L81.6984 102.497L76.7518 107.448C76.3288 107.867 76.082 108.432 76.0618 109.027C76.0416 109.622 76.2496 110.202 76.6432 110.649C77.0367 111.095 77.5861 111.375 78.1789 111.43C78.7716 111.484 79.3629 111.311 79.8318 110.944L80.0511 110.75L85.0001 105.799L89.9491 110.75C90.368 111.173 90.9328 111.42 91.5277 111.44C92.1226 111.46 92.7028 111.252 93.1494 110.859C93.5961 110.465 93.8754 109.916 93.9302 109.323C93.9851 108.73 93.8113 108.139 93.4444 107.67L93.2508 107.448L88.2994 102.499L93.2508 97.5504C93.6737 97.1315 93.9205 96.5668 93.9407 95.9718C93.9609 95.3769 93.7529 94.7967 93.3593 94.3501C92.9658 93.9034 92.4164 93.6241 91.8236 93.5693C91.2309 93.5144 90.6396 93.6882 90.1708 94.0551L89.9491 94.2487L85.0001 99.2001L80.0511 94.2487Z" fill="#27252C"/>
</g>
<rect x="16" y="171.999" width="138" height="8" rx="4" fill="#27252C"/>
<rect x="16" y="183.999" width="73.9199" height="8" rx="4" fill="#3B3842"/>
<rect x="16" y="196" width="116" height="8" rx="4" fill="#3B3842"/>
<defs>
<clipPath id="clip0_1271_5079">
<rect width="56" height="56" fill="white" transform="translate(57 74.4994)"/>
</clipPath>
</defs>
</svg>
