<svg width="256" height="256" viewBox="0 0 256 256" fill="none" xmlns="http://www.w3.org/2000/svg">
<path d="M85.6965 245.199L93.9429 231.727H144.218H161.855L170.101 245.199L171.721 247.846H174.824H218.311H228.387L222.986 239.34L178.692 169.582H196.476H204.3L201.699 162.203L180.691 102.614L221.963 38.1766L227.422 29.6524H217.3H174.521H171.396L169.781 32.327L161.023 46.8256L148.693 11.8505L147.39 8.15411H143.471H109.847H105.926L104.624 11.8528L93.2813 44.0711L86.2248 32.3362L84.6109 29.6524H81.4791H38.498H28.5163L33.7998 38.1211L73.1636 101.215L51.692 162.205L49.0951 169.582H56.9153H76.042L32.9759 239.401L27.767 247.846H37.689H80.9735H84.0766L85.6965 245.199ZM155.076 220.652H144.218H100.722L107.847 209.011H147.951L155.076 220.652ZM126.641 59.7068L136.332 87.705L127.907 101.653L117.846 84.9215L126.641 59.7068ZM114.625 197.936L127.899 176.25L141.172 197.936H114.625Z" fill="#6F4CE8" stroke="#27252C" stroke-width="11.0751"/>
</svg>
