<svg width="115" height="130" viewBox="0 0 115 130" fill="none" xmlns="http://www.w3.org/2000/svg">
<path d="M106.834 122.704L83.9259 86.6256H93.1238H97.1702L95.8249 82.8094L84.9599 51.99L106.305 18.6635L109.129 14.2548H103.894H81.7686H80.1526L79.3171 15.6381L74.7879 23.1367L68.4109 5.04777L67.7369 3.13601H65.7098H48.3198H46.2918L45.6183 5.04895L39.7521 21.7121L36.1025 15.6429L35.2678 14.2548H33.648H11.4184H6.25596L8.98857 18.6348L29.3473 51.2668L18.2423 82.8105L16.8992 86.6256H20.9438H30.836L8.56243 122.736L5.86844 127.103H11H33.3865H34.9914L35.8293 125.735L57.656 90.0745L79.4828 125.735L80.3206 127.103H81.9255H104.417H109.628L106.834 122.704ZM57.0056 29.7988L62.0178 44.2793L57.6605 51.4933L52.4568 42.8397L57.0056 29.7988Z" fill="#6F4CE8" stroke="#27252C" stroke-width="5.72797"/>
</svg>
